# xmcd CD database file
#
# Track frame offsets:
#	210
#	89422
#	120632
#	158205
#	206685
#	285595
#
# Disc length: 4408 seconds
#
# Revision: 0
# Processed by: cddbd v1.5.1PL0 Copyright (c) Steve Scherf et al.
# Submitted via: CDex 1.51
#
DISCID=4f113606
DTITLE=The Vinny Golia Large Ensemble - Tutto Contare
DYEAR=1995
DGENRE=Jazz
TTITLE0=Korean Lotus Driving Time
TTITLE1=Peacocks and Unicorns
TTITLE2=Chromazoid
TTITLE3=May the Beacon Pass You By
TTITLE4=Frayne Count
TTITLE5=Desendant
EXTD=YEAR: 1995
EXTT0=
EXTT1=
EXTT2=
EXTT3=
EXTT4=
EXTT5=
PLAYORDER=
